# xmcd
#
# Track frame offsets:
#	150
#	16364
#	32890
#	50891
#	66271
#	80918
#	98923
#	110616
#	125135
#	141432
#	158053
#	172074
#	187219
#	204253
#	220525
#	236705
#	254563
#	272537
#	286974
#
# Disc length: 3999
#
# Revision: 3
# Processed by: cddbd v1.5.1PL0 Copyright (c) Steve Scherf et al.
# Submitted via: FreeRIP 2.60 
# Normalized: r2:DSETVAR1,TDELIM( - )
#
DISCID=2e0f9d13
DTITLE=Various Artist - Promo Only Country Radio November 2000
DYEAR=2000
DGENRE=Country
TTITLE0=Tim McGraw - My Next Thirty Years
TTITLE1=Toby Keith - You Shouldn't Kiss Me Like This
TTITLE2=Lee Ann Womack - Ashes By Now
TTITLE3=Collin Raye - She's All That
TTITLE4=Alabama - When It All Goes South
TTITLE5=Jo Dee Messina - Burn
TTITLE6=Eric Heatherly - Wrong 5 O'Clock
TTITLE7=The Warren Brothers - Move On
TTITLE8=Bryan White - How Long
TTITLE9=McAlyster - I Know How The River Feels
TTITLE10=Neal Coty - Legacy
TTITLE11=Tamara Walker - Didn't We Love
TTITLE12=Tim Rushlow - She Misses Him
TTITLE13=The Kinleys - I'm In
TTITLE14=Jessica Andrews - Who Am I
TTITLE15=Steve Holy - The Hunger
TTITLE16=Sonya Isaacs - How Can I Forget
TTITLE17=Jeff Batson - This Is More Like It
TTITLE18=Samantha Russell - Kiss'em All
EXTD=
EXTT0=
EXTT1=
EXTT2=
EXTT3=
EXTT4=
EXTT5=
EXTT6=
EXTT7=
EXTT8=
EXTT9=
EXTT10=
EXTT11=
EXTT12=
EXTT13=
EXTT14=
EXTT15=
EXTT16=
EXTT17=
EXTT18=
PLAYORDER=
